<?xml version="1.0" encoding="UTF-8"?>
<svg xmlns="http://www.w3.org/2000/svg" width="90" height="90" viewBox="0 0 90 90"><style>path{fill:none;stroke:#2b2b2b;stroke-width:2px;stroke-linecap:round;stroke-linejoin:round}g{visibility:hidden;animation:seq 1s infinite}#frame0{animation-delay:0s}#frame1{animation-delay:.125s}#frame2{animation-delay:.25s}#frame3{animation-delay:.375s}#frame4{animation-delay:.5s}#frame5{animation-delay:.625s}#frame6{animation-delay:.75s}#frame7{animation-delay:.875s}@keyframes seq{0%{visibility:visible}12.5%{visibility:hidden}100%{visibility:hidden}}</style><g id="frame0"><path d="M 17.4,44.0 L 17.4,44.0 L 16.8,36.0 L 16.4,29.0 L 16.2,21.0 L 16.2,14.0 L 16.5,6.0 "></path><path d="M 16.5,6.0 L 16.5,6.0 L 25.2,7.0 L 34.0,9.0 L 41.9,11.0 L 50.3,12.0 L 59.2,13.0 L 66.2,12.0 L 73.4,10.0 "></path><path d="M 73.4,10.0 L 73.4,10.0 L 72.8,18.0 L 72.5,26.0 L 72.6,33.0 L 73.1,40.0 L 73.9,48.0 "></path><path d="M 17.4,44.0 L 17.4,44.0 L 25.3,45.0 L 33.0,47.0 L 40.3,48.0 L 49.2,50.0 L 58.3,51.0 L 66.3,51.0 L 73.9,48.0 "></path><path d="M 17.3,7.0 L 17.3,7.0 L 24.5,13.0 L 30.7,18.0 L 37.5,25.0 L 44.6,32.0 "></path><path d="M 44.6,32.0 L 44.6,32.0 L 51.1,28.0 L 59.3,24.0 L 65.9,18.0 L 72.9,11.0 "></path><path d="M 14.0,69.0 L 14.0,69.0 L 14.0,72.0 "></path><path d="M 14.0,72.0 L 14.0,72.0 L 13.2,77.0 "></path><path d="M 13.2,77.0 L 13.2,77.0 L 14.4,80.0 "></path><path d="M 14.4,80.0 L 14.4,80.0 L 18.1,79.0 "></path><path d="M 25.1,71.0 L 25.1,71.0 L 22.5,72.0 "></path><path d="M 22.5,72.0 L 22.5,72.0 L 22.1,74.0 "></path><path d="M 22.1,74.0 L 22.1,74.0 L 23.4,78.0 "></path><path d="M 23.4,78.0 L 23.4,78.0 L 26.0,78.0 "></path><path d="M 26.0,78.0 L 26.0,78.0 L 28.3,77.0 "></path><path d="M 28.3,77.0 L 28.3,77.0 L 29.2,74.0 "></path><path d="M 29.2,74.0 L 29.2,74.0 L 27.8,71.0 "></path><path d="M 25.1,71.0 L 25.1,71.0 L 27.8,71.0 "></path><path d="M 32.8,80.0 L 32.8,80.0 L 33.0,77.0 "></path><path d="M 33.0,77.0 L 33.0,77.0 L 35.5,72.0 "></path><path d="M 35.5,72.0 L 35.5,72.0 L 36.9,73.0 "></path><path d="M 36.9,73.0 L 36.9,73.0 L 37.6,76.0 "></path><path d="M 37.6,76.0 L 37.6,76.0 L 37.9,79.0 "></path><path d="M 37.9,79.0 L 37.9,79.0 L 37.7,83.0 "></path><path d="M 33.0,77.0 L 33.0,77.0 L 37.7,78.0 "></path><path d="M 43.4,74.0 L 43.4,74.0 L 43.7,83.0 "></path><path d="M 43.7,83.0 L 43.7,83.0 L 46.2,82.0 "></path><path d="M 46.2,82.0 L 46.2,82.0 L 48.2,81.0 "></path><path d="M 48.2,81.0 L 48.2,81.0 L 47.8,77.0 "></path><path d="M 47.8,77.0 L 47.8,77.0 L 45.2,75.0 "></path><path d="M 43.4,74.0 L 43.4,74.0 L 45.2,75.0 "></path><path d="M 54.3,75.0 L 54.3,75.0 L 54.4,78.0 "></path><path d="M 54.4,78.0 L 54.4,78.0 L 54.6,84.0 "></path><path d="M 58.9,84.0 L 58.9,84.0 L 60.7,77.0 "></path><path d="M 60.7,77.0 L 60.7,77.0 L 62.2,77.0 "></path><path d="M 62.2,77.0 L 62.2,77.0 L 65.4,81.0 "></path><path d="M 65.4,81.0 L 65.4,81.0 L 66.7,81.0 "></path><path d="M 66.7,81.0 L 66.7,81.0 L 68.3,74.0 "></path><path d="M 78.2,72.0 L 78.2,72.0 L 75.7,71.0 "></path><path d="M 75.7,71.0 L 75.7,71.0 L 73.7,72.0 "></path><path d="M 73.7,72.0 L 73.7,72.0 L 72.3,76.0 "></path><path d="M 72.3,76.0 L 72.3,76.0 L 72.5,79.0 "></path><path d="M 72.5,79.0 L 72.5,79.0 L 75.3,80.0 "></path><path d="M 75.3,80.0 L 75.3,80.0 L 78.3,79.0 "></path><path d="M 78.3,79.0 L 78.3,79.0 L 78.2,76.0 "></path><path d="M 78.2,76.0 L 78.2,76.0 L 75.8,77.0 "></path><path d="M 78.3,79.0 L 78.3,79.0 L 79.1,82.0 "></path></g><g id="frame1"><path d="M 17.3,45.0 L 17.3,45.0 L 17.7,37.0 L 17.8,29.0 L 17.4,21.0 L 16.6,13.0 L 15.6,6.0 "></path><path d="M 15.6,6.0 L 15.6,6.0 L 24.4,8.0 L 32.4,10.0 L 39.5,11.0 L 48.3,12.0 L 56.9,12.0 L 65.2,10.0 L 74.0,8.0 "></path><path d="M 74.0,8.0 L 74.0,8.0 L 74.0,15.0 L 73.6,23.0 L 73.1,31.0 L 72.5,39.0 L 72.3,46.0 "></path><path d="M 17.3,45.0 L 17.3,45.0 L 25.4,47.0 L 33.6,49.0 L 40.9,50.0 L 49.2,51.0 L 57.3,50.0 L 64.2,49.0 L 72.3,46.0 "></path><path d="M 16.6,7.0 L 16.6,7.0 L 24.5,14.0 L 30.8,20.0 L 37.3,26.0 L 44.2,33.0 "></path><path d="M 44.2,33.0 L 44.2,33.0 L 50.5,27.0 L 58.6,22.0 L 65.8,16.0 L 73.4,8.0 "></path><path d="M 13.8,69.0 L 13.8,69.0 L 13.7,72.0 "></path><path d="M 13.7,72.0 L 13.7,72.0 L 13.1,77.0 "></path><path d="M 13.1,77.0 L 13.1,77.0 L 14.5,79.0 "></path><path d="M 14.5,79.0 L 14.5,79.0 L 18.1,79.0 "></path><path d="M 25.1,72.0 L 25.1,72.0 L 22.4,73.0 "></path><path d="M 22.4,73.0 L 22.4,73.0 L 22.0,75.0 "></path><path d="M 22.0,75.0 L 22.0,75.0 L 23.4,79.0 "></path><path d="M 23.4,79.0 L 23.4,79.0 L 26.2,80.0 "></path><path d="M 26.2,80.0 L 26.2,80.0 L 28.6,79.0 "></path><path d="M 28.6,79.0 L 28.6,79.0 L 29.6,76.0 "></path><path d="M 29.6,76.0 L 29.6,76.0 L 28.0,73.0 "></path><path d="M 25.1,72.0 L 25.1,72.0 L 28.0,73.0 "></path><path d="M 33.2,82.0 L 33.2,82.0 L 33.5,78.0 "></path><path d="M 33.5,78.0 L 33.5,78.0 L 36.1,74.0 "></path><path d="M 36.1,74.0 L 36.1,74.0 L 37.5,74.0 "></path><path d="M 37.5,74.0 L 37.5,74.0 L 38.2,77.0 "></path><path d="M 38.2,77.0 L 38.2,77.0 L 38.3,81.0 "></path><path d="M 38.3,81.0 L 38.3,81.0 L 38.0,84.0 "></path><path d="M 33.5,78.0 L 33.5,78.0 L 38.2,80.0 "></path><path d="M 43.6,76.0 L 43.6,76.0 L 44.0,84.0 "></path><path d="M 44.0,84.0 L 44.0,84.0 L 46.5,83.0 "></path><path d="M 46.5,83.0 L 46.5,83.0 L 48.4,81.0 "></path><path d="M 48.4,81.0 L 48.4,81.0 L 47.9,77.0 "></path><path d="M 47.9,77.0 L 47.9,77.0 L 45.4,76.0 "></path><path d="M 43.6,76.0 L 43.6,76.0 L 45.4,76.0 "></path><path d="M 54.0,75.0 L 54.0,75.0 L 54.2,77.0 "></path><path d="M 54.2,77.0 L 54.2,77.0 L 54.7,83.0 "></path><path d="M 58.9,82.0 L 58.9,82.0 L 60.5,75.0 "></path><path d="M 60.5,75.0 L 60.5,75.0 L 62.1,76.0 "></path><path d="M 62.1,76.0 L 62.1,76.0 L 65.5,79.0 "></path><path d="M 65.5,79.0 L 65.5,79.0 L 66.7,78.0 "></path><path d="M 66.7,78.0 L 66.7,78.0 L 68.6,71.0 "></path><path d="M 78.2,70.0 L 78.2,70.0 L 75.8,70.0 "></path><path d="M 75.8,70.0 L 75.8,70.0 L 73.9,70.0 "></path><path d="M 73.9,70.0 L 73.9,70.0 L 72.4,74.0 "></path><path d="M 72.4,74.0 L 72.4,74.0 L 72.5,77.0 "></path><path d="M 72.5,77.0 L 72.5,77.0 L 75.1,79.0 "></path><path d="M 75.1,79.0 L 75.1,79.0 L 78.2,78.0 "></path><path d="M 78.2,78.0 L 78.2,78.0 L 78.1,75.0 "></path><path d="M 78.1,75.0 L 78.1,75.0 L 75.7,75.0 "></path><path d="M 78.2,78.0 L 78.2,78.0 L 78.9,81.0 "></path></g><g id="frame2"><path d="M 18.4,49.0 L 18.4,49.0 L 17.4,40.0 L 17.1,32.0 L 17.5,24.0 L 18.4,15.0 L 18.8,8.0 "></path><path d="M 18.8,8.0 L 18.8,8.0 L 26.2,9.0 L 34.1,11.0 L 40.4,11.0 L 48.3,10.0 L 55.7,9.0 L 63.0,8.0 L 71.7,6.0 "></path><path d="M 71.7,6.0 L 71.7,6.0 L 71.5,14.0 L 71.7,21.0 L 72.1,29.0 L 72.5,37.0 L 72.8,45.0 "></path><path d="M 18.4,49.0 L 18.4,49.0 L 26.6,50.0 L 34.8,52.0 L 41.2,51.0 L 48.8,49.0 L 56.5,48.0 L 63.8,46.0 L 72.8,45.0 "></path><path d="M 19.7,9.0 L 19.7,9.0 L 25.8,15.0 L 31.9,22.0 L 37.7,27.0 L 44.4,33.0 "></path><path d="M 44.4,33.0 L 44.4,33.0 L 50.3,26.0 L 57.5,20.0 L 63.3,13.0 L 71.1,7.0 "></path><path d="M 14.0,70.0 L 14.0,70.0 L 13.9,73.0 "></path><path d="M 13.9,73.0 L 13.9,73.0 L 12.9,78.0 "></path><path d="M 12.9,78.0 L 12.9,78.0 L 14.2,81.0 "></path><path d="M 14.2,81.0 L 14.2,81.0 L 18.1,81.0 "></path><path d="M 25.1,74.0 L 25.1,74.0 L 22.5,75.0 "></path><path d="M 22.5,75.0 L 22.5,75.0 L 22.1,77.0 "></path><path d="M 22.1,77.0 L 22.1,77.0 L 23.5,81.0 "></path><path d="M 23.5,81.0 L 23.5,81.0 L 26.2,82.0 "></path><path d="M 26.2,82.0 L 26.2,82.0 L 28.6,81.0 "></path><path d="M 28.6,81.0 L 28.6,81.0 L 29.4,78.0 "></path><path d="M 29.4,78.0 L 29.4,78.0 L 27.9,75.0 "></path><path d="M 25.1,74.0 L 25.1,74.0 L 27.9,75.0 "></path><path d="M 33.2,83.0 L 33.2,83.0 L 33.5,80.0 "></path><path d="M 33.5,80.0 L 33.5,80.0 L 35.9,75.0 "></path><path d="M 35.9,75.0 L 35.9,75.0 L 37.4,75.0 "></path><path d="M 37.4,75.0 L 37.4,75.0 L 38.3,78.0 "></path><path d="M 38.3,78.0 L 38.3,78.0 L 38.5,81.0 "></path><path d="M 38.5,81.0 L 38.5,81.0 L 38.2,85.0 "></path><path d="M 33.5,80.0 L 33.5,80.0 L 38.3,80.0 "></path><path d="M 44.1,75.0 L 44.1,75.0 L 44.3,83.0 "></path><path d="M 44.3,83.0 L 44.3,83.0 L 46.9,82.0 "></path><path d="M 46.9,82.0 L 46.9,82.0 L 48.9,80.0 "></path><path d="M 48.9,80.0 L 48.9,80.0 L 48.6,76.0 "></path><path d="M 48.6,76.0 L 48.6,76.0 L 45.9,75.0 "></path><path d="M 44.1,75.0 L 44.1,75.0 L 45.9,75.0 "></path><path d="M 54.7,73.0 L 54.7,73.0 L 54.9,75.0 "></path><path d="M 54.9,75.0 L 54.9,75.0 L 54.9,81.0 "></path><path d="M 59.0,80.0 L 59.0,80.0 L 60.8,73.0 "></path><path d="M 60.8,73.0 L 60.8,73.0 L 62.3,73.0 "></path><path d="M 62.3,73.0 L 62.3,73.0 L 65.5,77.0 "></path><path d="M 65.5,77.0 L 65.5,77.0 L 66.7,77.0 "></path><path d="M 66.7,77.0 L 66.7,77.0 L 68.4,70.0 "></path><path d="M 78.1,70.0 L 78.1,70.0 L 75.6,69.0 "></path><path d="M 75.6,69.0 L 75.6,69.0 L 73.6,70.0 "></path><path d="M 73.6,70.0 L 73.6,70.0 L 72.3,73.0 "></path><path d="M 72.3,73.0 L 72.3,73.0 L 72.5,76.0 "></path><path d="M 72.5,76.0 L 72.5,76.0 L 75.4,78.0 "></path><path d="M 75.4,78.0 L 75.4,78.0 L 78.6,77.0 "></path><path d="M 78.6,77.0 L 78.6,77.0 L 78.4,75.0 "></path><path d="M 78.4,75.0 L 78.4,75.0 L 75.8,75.0 "></path><path d="M 78.6,77.0 L 78.6,77.0 L 79.5,81.0 "></path></g><g id="frame3"><path d="M 21.6,51.0 L 21.6,51.0 L 21.1,44.0 L 19.7,36.0 L 18.0,28.0 L 16.8,19.0 L 16.0,11.0 "></path><path d="M 16.0,11.0 L 16.0,11.0 L 24.8,13.0 L 33.6,13.0 L 41.2,10.0 L 49.5,7.0 L 57.6,7.0 L 64.0,6.0 L 71.6,6.0 "></path><path d="M 71.6,6.0 L 71.6,6.0 L 71.4,14.0 L 71.5,21.0 L 71.3,29.0 L 71.1,37.0 L 71.3,44.0 "></path><path d="M 21.6,51.0 L 21.6,51.0 L 27.7,51.0 L 35.0,52.0 L 40.8,50.0 L 48.5,47.0 L 55.8,46.0 L 62.8,44.0 L 71.3,44.0 "></path><path d="M 16.9,12.0 L 16.9,12.0 L 24.8,19.0 L 31.6,24.0 L 38.0,27.0 L 44.8,32.0 "></path><path d="M 44.8,32.0 L 44.8,32.0 L 50.8,24.0 L 58.6,17.0 L 64.2,12.0 L 71.1,7.0 "></path><path d="M 14.2,71.0 L 14.2,71.0 L 13.9,75.0 "></path><path d="M 13.9,75.0 L 13.9,75.0 L 12.8,80.0 "></path><path d="M 12.8,80.0 L 12.8,80.0 L 14.1,83.0 "></path><path d="M 14.1,83.0 L 14.1,83.0 L 17.9,83.0 "></path><path d="M 25.6,75.0 L 25.6,75.0 L 22.8,76.0 "></path><path d="M 22.8,76.0 L 22.8,76.0 L 22.3,79.0 "></path><path d="M 22.3,79.0 L 22.3,79.0 L 23.5,83.0 "></path><path d="M 23.5,83.0 L 23.5,83.0 L 26.2,83.0 "></path><path d="M 26.2,83.0 L 26.2,83.0 L 28.8,81.0 "></path><path d="M 28.8,81.0 L 28.8,81.0 L 29.8,78.0 "></path><path d="M 29.8,78.0 L 29.8,78.0 L 28.4,75.0 "></path><path d="M 25.6,75.0 L 25.6,75.0 L 28.4,75.0 "></path><path d="M 33.2,83.0 L 33.2,83.0 L 33.6,80.0 "></path><path d="M 33.6,80.0 L 33.6,80.0 L 36.3,74.0 "></path><path d="M 36.3,74.0 L 36.3,74.0 L 37.7,75.0 "></path><path d="M 37.7,75.0 L 37.7,75.0 L 38.3,77.0 "></path><path d="M 38.3,77.0 L 38.3,77.0 L 38.4,81.0 "></path><path d="M 38.4,81.0 L 38.4,81.0 L 38.0,84.0 "></path><path d="M 33.6,80.0 L 33.6,80.0 L 38.2,80.0 "></path><path d="M 43.9,73.0 L 43.9,73.0 L 44.0,82.0 "></path><path d="M 44.0,82.0 L 44.0,82.0 L 46.4,81.0 "></path><path d="M 46.4,81.0 L 46.4,81.0 L 48.3,78.0 "></path><path d="M 48.3,78.0 L 48.3,78.0 L 48.0,74.0 "></path><path d="M 48.0,74.0 L 48.0,74.0 L 45.6,73.0 "></path><path d="M 43.9,73.0 L 43.9,73.0 L 45.6,73.0 "></path><path d="M 54.0,71.0 L 54.0,71.0 L 54.1,74.0 "></path><path d="M 54.1,74.0 L 54.1,74.0 L 54.3,80.0 "></path><path d="M 58.3,79.0 L 58.3,79.0 L 60.0,72.0 "></path><path d="M 60.0,72.0 L 60.0,72.0 L 61.5,73.0 "></path><path d="M 61.5,73.0 L 61.5,73.0 L 64.8,77.0 "></path><path d="M 64.8,77.0 L 64.8,77.0 L 66.1,77.0 "></path><path d="M 66.1,77.0 L 66.1,77.0 L 67.7,70.0 "></path><path d="M 78.1,72.0 L 78.1,72.0 L 75.4,71.0 "></path><path d="M 75.4,71.0 L 75.4,71.0 L 73.3,71.0 "></path><path d="M 73.3,71.0 L 73.3,71.0 L 72.0,74.0 "></path><path d="M 72.0,74.0 L 72.0,74.0 L 72.2,77.0 "></path><path d="M 72.2,77.0 L 72.2,77.0 L 75.1,79.0 "></path><path d="M 75.1,79.0 L 75.1,79.0 L 78.5,79.0 "></path><path d="M 78.5,79.0 L 78.5,79.0 L 78.3,76.0 "></path><path d="M 78.3,76.0 L 78.3,76.0 L 75.7,76.0 "></path><path d="M 78.5,79.0 L 78.5,79.0 L 79.3,82.0 "></path></g><g id="frame4"><path d="M 18.3,51.0 L 18.3,51.0 L 19.5,43.0 L 21.0,36.0 L 21.7,29.0 L 20.9,21.0 L 19.3,13.0 "></path><path d="M 19.3,13.0 L 19.3,13.0 L 26.8,13.0 L 34.7,13.0 L 40.8,10.0 L 48.6,8.0 L 56.6,8.0 L 64.5,8.0 L 73.2,8.0 "></path><path d="M 73.2,8.0 L 73.2,8.0 L 73.0,16.0 L 72.7,23.0 L 72.3,30.0 L 71.8,38.0 L 71.4,45.0 "></path><path d="M 18.3,51.0 L 18.3,51.0 L 26.1,51.0 L 34.0,50.0 L 40.3,47.0 L 48.2,45.0 L 55.6,45.0 L 62.8,44.0 L 71.4,45.0 "></path><path d="M 20.5,15.0 L 20.5,15.0 L 27.3,19.0 L 34.5,23.0 L 39.3,26.0 L 45.6,30.0 "></path><path d="M 45.6,30.0 L 45.6,30.0 L 51.0,23.0 L 58.5,18.0 L 65.1,13.0 L 72.7,9.0 "></path><path d="M 13.9,73.0 L 13.9,73.0 L 13.8,77.0 "></path><path d="M 13.8,77.0 L 13.8,77.0 L 13.1,81.0 "></path><path d="M 13.1,81.0 L 13.1,81.0 L 14.3,84.0 "></path><path d="M 14.3,84.0 L 14.3,84.0 L 17.8,85.0 "></path><path d="M 24.8,76.0 L 24.8,76.0 L 22.1,77.0 "></path><path d="M 22.1,77.0 L 22.1,77.0 L 21.7,80.0 "></path><path d="M 21.7,80.0 L 21.7,80.0 L 23.0,84.0 "></path><path d="M 23.0,84.0 L 23.0,84.0 L 25.6,84.0 "></path><path d="M 25.6,84.0 L 25.6,84.0 L 28.0,82.0 "></path><path d="M 28.0,82.0 L 28.0,82.0 L 29.0,78.0 "></path><path d="M 29.0,78.0 L 29.0,78.0 L 27.6,76.0 "></path><path d="M 24.8,76.0 L 24.8,76.0 L 27.6,76.0 "></path><path d="M 32.5,83.0 L 32.5,83.0 L 32.8,79.0 "></path><path d="M 32.8,79.0 L 32.8,79.0 L 35.7,73.0 "></path><path d="M 35.7,73.0 L 35.7,73.0 L 37.1,73.0 "></path><path d="M 37.1,73.0 L 37.1,73.0 L 37.6,76.0 "></path><path d="M 37.6,76.0 L 37.6,76.0 L 37.7,80.0 "></path><path d="M 37.7,80.0 L 37.7,80.0 L 37.5,83.0 "></path><path d="M 32.8,79.0 L 32.8,79.0 L 37.5,79.0 "></path><path d="M 43.5,72.0 L 43.5,72.0 L 43.6,80.0 "></path><path d="M 43.6,80.0 L 43.6,80.0 L 46.1,79.0 "></path><path d="M 46.1,79.0 L 46.1,79.0 L 48.0,77.0 "></path><path d="M 48.0,77.0 L 48.0,77.0 L 47.7,73.0 "></path><path d="M 47.7,73.0 L 47.7,73.0 L 45.3,72.0 "></path><path d="M 43.5,72.0 L 43.5,72.0 L 45.3,72.0 "></path><path d="M 54.0,70.0 L 54.0,70.0 L 54.1,73.0 "></path><path d="M 54.1,73.0 L 54.1,73.0 L 54.4,79.0 "></path><path d="M 58.6,79.0 L 58.6,79.0 L 60.3,72.0 "></path><path d="M 60.3,72.0 L 60.3,72.0 L 61.8,73.0 "></path><path d="M 61.8,73.0 L 61.8,73.0 L 65.2,77.0 "></path><path d="M 65.2,77.0 L 65.2,77.0 L 66.4,78.0 "></path><path d="M 66.4,78.0 L 66.4,78.0 L 68.1,71.0 "></path><path d="M 78.0,74.0 L 78.0,74.0 L 75.6,73.0 "></path><path d="M 75.6,73.0 L 75.6,73.0 L 73.6,72.0 "></path><path d="M 73.6,72.0 L 73.6,72.0 L 72.2,75.0 "></path><path d="M 72.2,75.0 L 72.2,75.0 L 72.3,79.0 "></path><path d="M 72.3,79.0 L 72.3,79.0 L 75.0,81.0 "></path><path d="M 75.0,81.0 L 75.0,81.0 L 78.2,81.0 "></path><path d="M 78.2,81.0 L 78.2,81.0 L 78.1,79.0 "></path><path d="M 78.1,79.0 L 78.1,79.0 L 75.6,78.0 "></path><path d="M 78.2,81.0 L 78.2,81.0 L 78.9,85.0 "></path></g><g id="frame5"><path d="M 18.5,51.0 L 18.5,51.0 L 17.9,43.0 L 17.8,35.0 L 18.1,27.0 L 18.4,19.0 L 18.4,12.0 "></path><path d="M 18.4,12.0 L 18.4,12.0 L 27.2,10.0 L 36.7,9.0 L 44.9,9.0 L 51.1,8.0 L 58.5,10.0 L 64.2,12.0 L 71.7,12.0 "></path><path d="M 71.7,12.0 L 71.7,12.0 L 71.6,20.0 L 71.8,27.0 L 72.0,34.0 L 72.2,40.0 L 72.3,48.0 "></path><path d="M 18.5,51.0 L 18.5,51.0 L 25.7,49.0 L 33.3,48.0 L 39.9,45.0 L 48.2,44.0 L 56.0,46.0 L 63.4,47.0 L 72.3,48.0 "></path><path d="M 19.5,13.0 L 19.5,13.0 L 26.7,16.0 L 34.6,21.0 L 39.9,24.0 L 46.5,29.0 "></path><path d="M 46.5,29.0 L 46.5,29.0 L 52.6,24.0 L 59.6,20.0 L 64.6,17.0 L 71.2,13.0 "></path><path d="M 13.7,74.0 L 13.7,74.0 L 13.8,77.0 "></path><path d="M 13.8,77.0 L 13.8,77.0 L 13.1,82.0 "></path><path d="M 13.1,82.0 L 13.1,82.0 L 14.5,84.0 "></path><path d="M 14.5,84.0 L 14.5,84.0 L 18.0,84.0 "></path><path d="M 24.8,74.0 L 24.8,74.0 L 22.2,76.0 "></path><path d="M 22.2,76.0 L 22.2,76.0 L 21.9,79.0 "></path><path d="M 21.9,79.0 L 21.9,79.0 L 23.2,82.0 "></path><path d="M 23.2,82.0 L 23.2,82.0 L 25.9,82.0 "></path><path d="M 25.9,82.0 L 25.9,82.0 L 28.3,79.0 "></path><path d="M 28.3,79.0 L 28.3,79.0 L 29.2,76.0 "></path><path d="M 29.2,76.0 L 29.2,76.0 L 27.7,74.0 "></path><path d="M 24.8,74.0 L 24.8,74.0 L 27.7,74.0 "></path><path d="M 32.9,80.0 L 32.9,80.0 L 33.2,77.0 "></path><path d="M 33.2,77.0 L 33.2,77.0 L 35.8,71.0 "></path><path d="M 35.8,71.0 L 35.8,71.0 L 37.3,71.0 "></path><path d="M 37.3,71.0 L 37.3,71.0 L 37.9,74.0 "></path><path d="M 37.9,74.0 L 37.9,74.0 L 38.1,77.0 "></path><path d="M 38.1,77.0 L 38.1,77.0 L 37.8,81.0 "></path><path d="M 33.2,77.0 L 33.2,77.0 L 37.9,76.0 "></path><path d="M 43.8,70.0 L 43.8,70.0 L 44.0,79.0 "></path><path d="M 44.0,79.0 L 44.0,79.0 L 46.5,78.0 "></path><path d="M 46.5,78.0 L 46.5,78.0 L 48.4,76.0 "></path><path d="M 48.4,76.0 L 48.4,76.0 L 48.1,72.0 "></path><path d="M 48.1,72.0 L 48.1,72.0 L 45.6,70.0 "></path><path d="M 43.8,70.0 L 43.8,70.0 L 45.6,70.0 "></path><path d="M 54.3,71.0 L 54.3,71.0 L 54.5,73.0 "></path><path d="M 54.5,73.0 L 54.5,73.0 L 54.5,79.0 "></path><path d="M 58.6,80.0 L 58.6,80.0 L 60.5,73.0 "></path><path d="M 60.5,73.0 L 60.5,73.0 L 62.0,74.0 "></path><path d="M 62.0,74.0 L 62.0,74.0 L 65.3,79.0 "></path><path d="M 65.3,79.0 L 65.3,79.0 L 66.6,80.0 "></path><path d="M 66.6,80.0 L 66.6,80.0 L 68.4,73.0 "></path><path d="M 78.4,75.0 L 78.4,75.0 L 75.9,74.0 "></path><path d="M 75.9,74.0 L 75.9,74.0 L 73.9,74.0 "></path><path d="M 73.9,74.0 L 73.9,74.0 L 72.5,77.0 "></path><path d="M 72.5,77.0 L 72.5,77.0 L 72.5,81.0 "></path><path d="M 72.5,81.0 L 72.5,81.0 L 75.3,83.0 "></path><path d="M 75.3,83.0 L 75.3,83.0 L 78.5,82.0 "></path><path d="M 78.5,82.0 L 78.5,82.0 L 78.4,80.0 "></path><path d="M 78.4,80.0 L 78.4,80.0 L 75.9,80.0 "></path><path d="M 78.5,82.0 L 78.5,82.0 L 79.1,86.0 "></path></g><g id="frame6"><path d="M 17.6,48.0 L 17.6,48.0 L 18.3,41.0 L 18.9,33.0 L 18.9,26.0 L 18.6,18.0 L 18.3,10.0 "></path><path d="M 18.3,10.0 L 18.3,10.0 L 25.8,9.0 L 34.1,8.0 L 41.8,8.0 L 50.5,9.0 L 59.9,11.0 L 67.7,13.0 L 73.9,13.0 "></path><path d="M 73.9,13.0 L 73.9,13.0 L 74.3,21.0 L 73.9,29.0 L 73.1,36.0 L 72.3,43.0 L 71.8,50.0 "></path><path d="M 17.6,48.0 L 17.6,48.0 L 25.1,47.0 L 32.6,45.0 L 39.8,44.0 L 48.4,46.0 L 56.5,48.0 L 63.6,50.0 L 71.8,50.0 "></path><path d="M 19.2,11.0 L 19.2,11.0 L 25.6,15.0 L 32.2,19.0 L 38.6,23.0 L 46.1,30.0 "></path><path d="M 46.1,30.0 L 46.1,30.0 L 53.4,26.0 L 61.4,23.0 L 68.8,19.0 L 73.6,14.0 "></path><path d="M 13.9,73.0 L 13.9,73.0 L 13.8,76.0 "></path><path d="M 13.8,76.0 L 13.8,76.0 L 12.7,81.0 "></path><path d="M 12.7,81.0 L 12.7,81.0 L 13.9,84.0 "></path><path d="M 13.9,84.0 L 13.9,84.0 L 17.6,83.0 "></path><path d="M 25.1,72.0 L 25.1,72.0 L 22.4,74.0 "></path><path d="M 22.4,74.0 L 22.4,74.0 L 21.9,77.0 "></path><path d="M 21.9,77.0 L 21.9,77.0 L 23.1,81.0 "></path><path d="M 23.1,81.0 L 23.1,81.0 L 25.8,80.0 "></path><path d="M 25.8,80.0 L 25.8,80.0 L 28.4,77.0 "></path><path d="M 28.4,77.0 L 28.4,77.0 L 29.4,74.0 "></path><path d="M 29.4,74.0 L 29.4,74.0 L 28.0,72.0 "></path><path d="M 25.1,72.0 L 25.1,72.0 L 28.0,72.0 "></path><path d="M 33.1,79.0 L 33.1,79.0 L 33.4,75.0 "></path><path d="M 33.4,75.0 L 33.4,75.0 L 36.0,70.0 "></path><path d="M 36.0,70.0 L 36.0,70.0 L 37.4,70.0 "></path><path d="M 37.4,70.0 L 37.4,70.0 L 38.1,73.0 "></path><path d="M 38.1,73.0 L 38.1,73.0 L 38.3,76.0 "></path><path d="M 38.3,76.0 L 38.3,76.0 L 38.1,80.0 "></path><path d="M 33.4,75.0 L 33.4,75.0 L 38.2,75.0 "></path><path d="M 43.8,70.0 L 43.8,70.0 L 44.2,79.0 "></path><path d="M 44.2,79.0 L 44.2,79.0 L 46.7,78.0 "></path><path d="M 46.7,78.0 L 46.7,78.0 L 48.6,77.0 "></path><path d="M 48.6,77.0 L 48.6,77.0 L 48.2,73.0 "></path><path d="M 48.2,73.0 L 48.2,73.0 L 45.6,71.0 "></path><path d="M 43.8,70.0 L 43.8,70.0 L 45.6,71.0 "></path><path d="M 54.4,72.0 L 54.4,72.0 L 54.6,75.0 "></path><path d="M 54.6,75.0 L 54.6,75.0 L 54.7,81.0 "></path><path d="M 58.7,82.0 L 58.7,82.0 L 60.6,75.0 "></path><path d="M 60.6,75.0 L 60.6,75.0 L 62.1,76.0 "></path><path d="M 62.1,76.0 L 62.1,76.0 L 65.1,81.0 "></path><path d="M 65.1,81.0 L 65.1,81.0 L 66.3,81.0 "></path><path d="M 66.3,81.0 L 66.3,81.0 L 68.3,75.0 "></path><path d="M 78.3,75.0 L 78.3,75.0 L 75.7,75.0 "></path><path d="M 75.7,75.0 L 75.7,75.0 L 73.7,75.0 "></path><path d="M 73.7,75.0 L 73.7,75.0 L 72.2,78.0 "></path><path d="M 72.2,78.0 L 72.2,78.0 L 72.2,82.0 "></path><path d="M 72.2,82.0 L 72.2,82.0 L 75.0,84.0 "></path><path d="M 75.0,84.0 L 75.0,84.0 L 78.3,82.0 "></path><path d="M 78.3,82.0 L 78.3,82.0 L 78.2,80.0 "></path><path d="M 78.2,80.0 L 78.2,80.0 L 75.7,80.0 "></path><path d="M 78.3,82.0 L 78.3,82.0 L 79.1,86.0 "></path></g><g id="frame7"><path d="M 16.1,46.0 L 16.1,46.0 L 16.2,38.0 L 16.8,30.0 L 18.0,23.0 L 19.5,15.0 L 20.6,8.0 "></path><path d="M 20.6,8.0 L 20.6,8.0 L 27.6,7.0 L 35.6,8.0 L 41.9,9.0 L 49.3,11.0 L 57.4,13.0 L 64.6,13.0 L 72.8,12.0 "></path><path d="M 72.8,12.0 L 72.8,12.0 L 73.3,19.0 L 74.2,27.0 L 75.0,35.0 L 74.8,43.0 L 73.9,51.0 "></path><path d="M 16.1,46.0 L 16.1,46.0 L 24.7,45.0 L 32.6,45.0 L 39.9,46.0 L 48.8,48.0 L 57.7,51.0 L 65.8,52.0 L 73.9,51.0 "></path><path d="M 21.5,9.0 L 21.5,9.0 L 26.6,13.0 L 32.6,19.0 L 38.1,24.0 L 45.2,31.0 "></path><path d="M 45.2,31.0 L 45.2,31.0 L 51.7,28.0 L 59.5,23.0 L 65.5,19.0 L 72.3,13.0 "></path><path d="M 14.2,70.0 L 14.2,70.0 L 14.1,74.0 "></path><path d="M 14.1,74.0 L 14.1,74.0 L 13.2,79.0 "></path><path d="M 13.2,79.0 L 13.2,79.0 L 14.4,81.0 "></path><path d="M 14.4,81.0 L 14.4,81.0 L 18.0,80.0 "></path><path d="M 25.3,70.0 L 25.3,70.0 L 22.6,72.0 "></path><path d="M 22.6,72.0 L 22.6,72.0 L 22.1,75.0 "></path><path d="M 22.1,75.0 L 22.1,75.0 L 23.2,79.0 "></path><path d="M 23.2,79.0 L 23.2,79.0 L 25.9,78.0 "></path><path d="M 25.9,78.0 L 25.9,78.0 L 28.4,76.0 "></path><path d="M 28.4,76.0 L 28.4,76.0 L 29.6,73.0 "></path><path d="M 29.6,73.0 L 29.6,73.0 L 28.1,70.0 "></path><path d="M 25.3,70.0 L 25.3,70.0 L 28.1,70.0 "></path><path d="M 32.9,78.0 L 32.9,78.0 L 33.4,75.0 "></path><path d="M 33.4,75.0 L 33.4,75.0 L 36.1,70.0 "></path><path d="M 36.1,70.0 L 36.1,70.0 L 37.6,71.0 "></path><path d="M 37.6,71.0 L 37.6,71.0 L 38.2,73.0 "></path><path d="M 38.2,73.0 L 38.2,73.0 L 38.2,77.0 "></path><path d="M 38.2,77.0 L 38.2,77.0 L 37.8,81.0 "></path><path d="M 33.4,75.0 L 33.4,75.0 L 38.1,76.0 "></path><path d="M 43.8,72.0 L 43.8,72.0 L 44.1,80.0 "></path><path d="M 44.1,80.0 L 44.1,80.0 L 46.6,80.0 "></path><path d="M 46.6,80.0 L 46.6,80.0 L 48.5,79.0 "></path><path d="M 48.5,79.0 L 48.5,79.0 L 48.1,75.0 "></path><path d="M 48.1,75.0 L 48.1,75.0 L 45.6,73.0 "></path><path d="M 43.8,72.0 L 43.8,72.0 L 45.6,73.0 "></path><path d="M 54.0,75.0 L 54.0,75.0 L 54.2,77.0 "></path><path d="M 54.2,77.0 L 54.2,77.0 L 54.7,83.0 "></path><path d="M 58.7,83.0 L 58.7,83.0 L 60.1,77.0 "></path><path d="M 60.1,77.0 L 60.1,77.0 L 61.7,78.0 "></path><path d="M 61.7,78.0 L 61.7,78.0 L 65.0,82.0 "></path><path d="M 65.0,82.0 L 65.0,82.0 L 66.3,82.0 "></path><path d="M 66.3,82.0 L 66.3,82.0 L 67.9,75.0 "></path><path d="M 78.0,74.0 L 78.0,74.0 L 75.4,74.0 "></path><path d="M 75.4,74.0 L 75.4,74.0 L 73.4,75.0 "></path><path d="M 73.4,75.0 L 73.4,75.0 L 72.0,78.0 "></path><path d="M 72.0,78.0 L 72.0,78.0 L 72.1,81.0 "></path><path d="M 72.1,81.0 L 72.1,81.0 L 74.9,83.0 "></path><path d="M 74.9,83.0 L 74.9,83.0 L 78.2,81.0 "></path><path d="M 78.2,81.0 L 78.2,81.0 L 78.1,79.0 "></path><path d="M 78.1,79.0 L 78.1,79.0 L 75.5,79.0 "></path><path d="M 78.2,81.0 L 78.2,81.0 L 79.0,84.0 "></path></g></svg>
