<svg xmlns="http://www.w3.org/2000/svg" viewBox="0 0 64 64">
  <path fill="#000" fill-rule="evenodd" d="M31.8 5.2c5.7 3.7 8.5 7.2 8.5 10.6 0 1.8-.7 3.4-2 4.8 7.5.8 12.5 5.1 12.5 11.1 0 2.5-.9 4.8-2.6 6.7 5 2.2 7.8 5.8 7.8 10.2 0 6.4-5.8 10.2-14.5 10.2h-20C12.8 58.8 7 55 7 48.6c0-4.6 3.1-8.3 8.4-10.5a10.8 10.8 0 0 1-2.3-6.7c0-5.8 4.5-10 11.4-11.1-1-1.5-1.5-3.2-1.5-5.1 0-4 2.9-7.3 8.8-10ZM24 34.2a3.8 3.8 0 1 0 0-7.6 3.8 3.8 0 0 0 0 7.6Zm16 0a3.8 3.8 0 1 0 0-7.6 3.8 3.8 0 0 0 0 7.6ZM22.5 44.5a2 2 0 0 0-3 2.6c6.6 7.4 18.4 7.4 25 0a2 2 0 1 0-3-2.6c-5 5.6-14 5.6-19 0Z"/>
</svg>
